<svg width="39" height="34" viewBox="0 0 39 34" fill="none" xmlns="http://www.w3.org/2000/svg">
<path d="M15.0759 33.4849L0.86792 33.7409V19.5329C0.86792 16.9729 1.12392 14.5409 1.63592 12.2369C2.14792 9.93287 3.04392 7.88487 4.19592 6.22087C5.34792 4.55687 6.75592 3.14887 8.54792 2.12487C10.3399 1.10087 12.5159 0.588867 14.9479 0.588867V6.98887C13.5399 6.98887 12.3879 7.37287 11.4919 8.14087C10.5959 8.90887 9.82792 9.80487 9.18792 10.9569C8.54792 12.1089 8.16392 13.3889 7.90792 14.9249C7.65192 16.4609 7.52392 17.8689 7.52392 19.2769H15.0759V33.4849ZM38.4999 33.7409L24.2919 33.9969V19.7889C24.2919 17.2289 24.5479 14.7969 25.0599 12.4929C25.5719 10.1889 26.4679 8.14087 27.6199 6.47687C28.7719 4.81287 30.1799 3.40487 31.9719 2.38087C33.7639 1.35687 35.9399 0.844872 38.3719 0.844872V7.24487C36.9639 7.24487 35.8119 7.62887 34.9159 8.39687C34.0199 9.16487 33.2519 10.0609 32.6119 11.2129C31.9719 12.3649 31.5879 13.6449 31.3319 15.1809C31.0759 16.7169 30.9479 18.1249 30.9479 19.5329H38.4999V33.7409Z" fill="#290C51"/>
</svg>
