<svg width="114" height="73" viewBox="0 0 114 73" fill="none" xmlns="http://www.w3.org/2000/svg">
<path d="M25.6608 26.571H25.0537C24.9982 26.571 24.9753 26.5841 24.9753 26.6559V27.3772C24.9753 27.4392 24.9917 27.4555 25.0537 27.4555H25.6608C25.7326 27.4555 25.7456 27.4327 25.7456 27.3772V26.6559C25.7456 26.5906 25.726 26.571 25.6608 26.571Z" fill="#290C51"/>
<path d="M27.2987 26.571H26.6981C26.6329 26.571 26.6133 26.5906 26.6133 26.6559V27.3772C26.6133 27.4327 26.6263 27.4555 26.6981 27.4555H27.2987C27.3705 27.4555 27.3835 27.4327 27.3835 27.3772V26.6559C27.3835 26.5906 27.364 26.571 27.2987 26.571Z" fill="#290C51"/>
<path d="M21.4143 18.6006H22.0213C22.0964 18.6006 22.1062 18.5777 22.1062 18.5222V17.7944C22.1062 17.7389 22.0931 17.7161 22.0213 17.7161H21.4143C21.3523 17.7161 21.3359 17.7324 21.3359 17.7944V18.5222C21.3359 18.5842 21.3523 18.6006 21.4143 18.6006Z" fill="#290C51"/>
<path d="M32.1622 26.571H31.5551C31.4997 26.571 31.4768 26.5841 31.4768 26.6559V27.3772C31.4768 27.4392 31.4931 27.4555 31.5551 27.4555H32.1622C32.234 27.4555 32.2471 27.4327 32.2471 27.3772V26.6559C32.2471 26.5906 32.2275 26.571 32.1622 26.571Z" fill="#290C51"/>
<path d="M23.0525 18.6006H23.6595C23.7313 18.6006 23.7444 18.5777 23.7444 18.5222V17.7944C23.7444 17.7389 23.7313 17.7161 23.6595 17.7161H23.0525C22.9904 17.7161 22.9741 17.7324 22.9741 17.7944V18.5222C22.9741 18.5842 22.9904 18.6006 23.0525 18.6006Z" fill="#290C51"/>
<path d="M55.5639 18.1111C55.5639 18.1111 55.5475 18.0915 55.5377 18.085C55.5116 18.0654 55.479 18.0556 55.4366 18.0556H54.2191V17.6215C54.2191 17.5106 54.2583 17.4192 54.3334 17.3408C54.4117 17.2625 54.4998 17.2266 54.6075 17.2266C54.7805 17.2266 54.9013 17.3082 54.9731 17.4681L55.0221 17.5889C55.0416 17.6411 55.0775 17.664 55.1167 17.6803C55.1265 17.6803 55.1461 17.6868 55.1591 17.6868C55.1755 17.6868 55.2048 17.6803 55.2179 17.6737L55.4627 17.5693C55.4953 17.5562 55.5214 17.5334 55.541 17.504C55.5475 17.4975 55.5573 17.4649 55.5606 17.4551C55.5704 17.4224 55.5704 17.4028 55.5508 17.3735L55.4953 17.2462C55.3289 16.8578 55.0318 16.6587 54.6075 16.6587C54.3432 16.6587 54.1212 16.7501 53.9319 16.9394C53.7426 17.1319 53.6512 17.3572 53.6512 17.6215V18.0556H53.4554C53.4162 18.0556 53.3836 18.0654 53.3575 18.0817C53.351 18.0883 53.3412 18.0948 53.3346 18.1013C53.3118 18.1274 53.302 18.1633 53.302 18.2058V18.4701C53.302 18.506 53.3085 18.5387 53.3249 18.5615C53.3281 18.568 53.3346 18.5746 53.3412 18.5811C53.3673 18.6072 53.4064 18.6203 53.4521 18.6203H55.4333C55.4659 18.6203 55.492 18.6137 55.5149 18.6039C55.5377 18.5909 55.5573 18.5713 55.5704 18.5485C55.5802 18.5256 55.5867 18.4995 55.5867 18.4669V18.2025C55.5867 18.1633 55.5769 18.1307 55.5606 18.1078" fill="#290C51"/>
<path d="M40.2888 19.9813C39.5936 19.9813 39.042 20.1249 38.647 20.4121L38.4088 20.5786C38.4088 20.5786 38.3827 20.6079 38.3761 20.6308V20.6439C38.3761 20.6439 38.3827 20.6765 38.3925 20.6928L38.7254 21.1563C38.7384 21.1759 38.7548 21.1857 38.7776 21.1889H38.7874C38.8102 21.1889 38.8266 21.1857 38.8396 21.1759L39.0746 21.0061C39.3455 20.8168 39.7535 20.7222 40.2888 20.7222C40.6739 20.7222 41.0101 20.8593 41.2842 21.1302C41.5551 21.4011 41.6922 21.734 41.6922 22.1191V23.3822C41.6922 23.7576 41.6106 24.035 41.4442 24.2047C41.2451 24.4038 40.9089 24.4985 40.4128 24.4985H37.7756C37.7136 24.4985 37.6973 24.5148 37.6973 24.5768V25.1545C37.6973 25.2165 37.7136 25.2328 37.7756 25.2328H40.4128C40.9807 25.2328 41.4376 25.1153 41.7705 24.8803C42.2046 24.5735 42.4266 24.0676 42.4266 23.379V22.1158C42.4266 21.5284 42.2177 21.0192 41.8032 20.608C41.3854 20.1902 40.8763 19.978 40.2888 19.978" fill="#290C51"/>
<path d="M49.1928 20.1184H46.807L46.8168 20.027C46.9538 18.6496 47.6947 17.9512 49.0199 17.9512H50.0414C50.1035 17.9512 50.1198 17.9348 50.1198 17.8728V17.2951C50.1198 17.2331 50.1035 17.2168 50.0414 17.2168H49.0199C48.0962 17.2168 47.3618 17.5073 46.8396 18.0785C46.3207 18.6529 46.0563 19.4656 46.0563 20.4904C46.0563 20.5916 46.0922 20.6765 46.164 20.7515C46.2358 20.8233 46.3207 20.8593 46.4251 20.8593H49.1928C49.7575 20.8593 50.2242 21.042 50.5734 21.4011C50.9227 21.7601 51.1022 22.2366 51.1022 22.8176V23.751C51.1022 24.0023 51.0369 24.1916 50.9096 24.3124C50.7889 24.4364 50.5996 24.4984 50.345 24.4984H45.3154C45.0837 24.4984 44.8976 24.4364 44.7703 24.3124C44.6496 24.1884 44.5908 23.9991 44.5908 23.751V17.3017C44.5908 17.2364 44.5712 17.2168 44.506 17.2168H43.9348C43.8793 17.2168 43.8564 17.2299 43.8564 17.3017V23.751C43.8564 24.2112 43.9903 24.5768 44.2579 24.8411C44.5223 25.1055 44.8813 25.2361 45.335 25.2361H50.3515C50.8019 25.2361 51.1675 25.1023 51.4351 24.8411C51.7027 24.5735 51.8366 24.208 51.8366 23.751V22.8176C51.8366 22.0375 51.5852 21.388 51.0924 20.8821C50.593 20.3762 49.9566 20.1216 49.1928 20.1216" fill="#290C51"/>
<path d="M34.0419 26.571H33.4348C33.3793 26.571 33.3564 26.5841 33.3564 26.6559V27.3772C33.3564 27.4392 33.3728 27.4555 33.4348 27.4555H34.0419C34.1169 27.4555 34.1267 27.4327 34.1267 27.3772V26.6559C34.1267 26.5906 34.1071 26.571 34.0419 26.571Z" fill="#290C51"/>
<path d="M54.6792 19.3186H54.1015C54.046 19.3186 54.0232 19.3317 54.0232 19.4035V25.1478C54.0232 25.2229 54.046 25.2327 54.1015 25.2327H54.6792C54.7347 25.2327 54.7576 25.2196 54.7576 25.1478V19.4035C54.7576 19.3284 54.7347 19.3186 54.6792 19.3186Z" fill="#290C51"/>
<path d="M36.1437 20.226H35.5725C35.4974 20.226 35.4876 20.2489 35.4876 20.3043V23.7477C35.4876 23.999 35.4256 24.1883 35.3016 24.3091C35.1874 24.4299 35.0013 24.4919 34.7565 24.4951H34.5868C34.28 24.4951 34.0417 24.4103 33.872 24.2438C33.7937 24.1655 33.7382 24.0676 33.7056 23.9468L33.6958 23.9142L33.7121 23.8848C33.9047 23.5192 34.0026 23.1243 34.0026 22.7098V22.4911C34.0026 21.7992 33.7545 21.2019 33.265 20.7123C32.7786 20.2228 32.1814 19.9747 31.4927 19.9747C30.804 19.9747 30.2067 20.2228 29.7204 20.7123C29.2308 21.2019 28.9828 21.8025 28.9828 22.4911V24.4886H28.4279C28.0395 24.4886 27.7817 24.4168 27.6381 24.2732C27.5532 24.1883 27.5108 24.0643 27.5108 23.9011V20.0661C27.5108 20.0008 27.4912 19.9812 27.4259 19.9812H26.8548C26.7993 19.9812 26.7764 19.9943 26.7764 20.0661V23.7314C26.7764 23.9892 26.7144 24.1818 26.5904 24.2993C26.4696 24.4233 26.2901 24.4853 26.0518 24.4853H25.2881V22.4879C25.2881 21.7959 25.0401 21.1986 24.557 20.7091C24.0674 20.2195 23.4669 19.9714 22.7782 19.9714C22.0895 19.9714 21.4923 20.2195 21.0059 20.7091C20.5164 21.1986 20.2683 21.7992 20.2683 22.4879V22.7065C20.2683 23.3985 20.5164 23.9958 21.0059 24.4853C21.4923 24.9749 22.0895 25.223 22.7782 25.223H25.8821L26.029 25.2197C26.4859 25.2197 26.8482 25.0859 27.1093 24.828C27.1648 24.7693 27.2105 24.6387 27.2105 24.6387C27.2105 24.6387 27.2693 24.7693 27.2888 24.7954C27.5695 25.1446 28.0069 25.223 28.5813 25.223H29.2047C29.2602 25.223 29.3157 25.2262 29.3614 25.2262H31.4992C32.1552 25.2262 32.7362 24.9945 33.2258 24.5343L33.2976 24.469L33.3531 24.5473C33.4086 24.6322 33.4673 24.7008 33.5228 24.7562C33.8361 25.0663 34.2506 25.223 34.7533 25.2262C35.1972 25.2262 35.5594 25.0924 35.8303 24.8313C36.1012 24.5637 36.2383 24.1981 36.2383 23.7444V20.3011C36.2383 20.2456 36.2253 20.2228 36.1535 20.2228M21.5216 23.9729C21.1757 23.6269 20.9994 23.2026 20.9994 22.7131V22.4944C20.9994 22.0048 21.1757 21.5805 21.5216 21.2345C21.8643 20.8918 22.2854 20.7189 22.7749 20.7189C23.2645 20.7189 23.6888 20.8918 24.0348 21.2345C24.3808 21.5805 24.557 22.0048 24.557 22.4944V24.4919H23.8063L22.7749 24.4951C22.2854 24.4951 21.8643 24.3189 21.5216 23.9729ZM33.2845 22.7131C33.2845 23.2026 33.1083 23.6269 32.7623 23.9729C32.4164 24.3189 31.9921 24.4951 31.5025 24.4951H30.5396L29.7269 24.4919V22.4944C29.7269 22.0048 29.9032 21.5805 30.2492 21.2345C30.5919 20.8918 31.0129 20.7189 31.5025 20.7189C31.9921 20.7189 32.4164 20.8918 32.7623 21.2345C33.1083 21.5805 33.2845 22.0048 33.2845 22.4944V22.7131Z" fill="#290C51"/>
<path d="M54.8525 29.8284C54.3629 29.3388 53.7624 29.0908 53.0737 29.0908C52.385 29.0908 51.7845 29.3388 51.2949 29.8284C50.8086 30.3147 50.5638 30.912 50.5638 31.6007V33.6014H36.0593C35.9874 33.6014 35.697 33.621 35.697 33.9702V34.4859C35.697 34.9722 35.5207 35.3932 35.1747 35.7392C34.8288 36.0852 34.4045 36.2614 33.9149 36.2614C33.4253 36.2614 33.0076 36.0852 32.6616 35.7392C32.3156 35.3932 32.1394 34.9689 32.1394 34.4859V34.3358H33.9149C34.5742 34.3358 35.1486 34.1073 35.6252 33.6601L35.759 33.5329C36.2029 33.0531 36.4281 32.4786 36.4281 31.8226V31.6039C36.4281 30.912 36.18 30.3147 35.697 29.8251C35.2074 29.3388 34.6068 29.0908 33.9182 29.0908C33.2295 29.0908 32.6355 29.3388 32.1459 29.8219C31.6563 30.3114 31.4083 30.912 31.4083 31.6007V33.5949H17.7132C17.4031 33.5949 17.1616 33.51 16.9951 33.3435C16.8646 33.213 16.796 33.0433 16.796 32.8409V31.2155C16.796 30.628 16.5871 30.1189 16.1726 29.7076C15.7549 29.2931 15.2457 29.0842 14.6615 29.0842C13.9663 29.0842 13.4082 29.2278 13.01 29.5118L12.7815 29.675C12.7619 29.688 12.7489 29.7044 12.7456 29.7239V29.7468C12.7456 29.7631 12.7521 29.7729 12.7586 29.7794V29.786L13.0981 30.2592C13.1144 30.2821 13.1307 30.2886 13.1438 30.2886H13.1634C13.1797 30.2886 13.196 30.2821 13.2123 30.2723L13.4473 30.1091C13.7215 29.9165 14.1295 29.8186 14.668 29.8186C15.0499 29.8186 15.3828 29.9557 15.6569 30.2266C15.9311 30.5007 16.0715 30.8337 16.0715 31.2155V32.4852C16.0715 32.8638 15.9866 33.1379 15.8201 33.3011C15.6276 33.5002 15.2914 33.5949 14.7953 33.5949H12.1516C12.0961 33.5949 12.0732 33.6079 12.0732 33.6797V34.2509C12.0732 34.3129 12.0896 34.3292 12.1516 34.3292H14.7953C15.5264 34.3292 16.0715 34.1301 16.4142 33.7385L16.5578 33.572C16.5578 33.572 16.8515 34.3325 17.8764 34.3292H31.4148V34.4794C31.4148 35.1648 31.6628 35.7621 32.1524 36.2516C32.642 36.7412 33.2393 36.9893 33.9247 36.9893C34.6101 36.9893 35.2139 36.7412 35.7035 36.2516C36.1898 35.7621 36.4379 35.1648 36.4379 34.4761V34.326H53.0867C53.7787 34.326 54.376 34.0779 54.8655 33.5883C55.3551 33.0988 55.6032 32.5015 55.6032 31.8161V31.5909C55.6032 30.8989 55.3551 30.3049 54.8655 29.8186M32.1492 31.5974C32.1492 31.1078 32.3254 30.6835 32.6714 30.3375C33.0173 29.9948 33.4384 29.8219 33.9247 29.8219C34.411 29.8219 34.8386 29.9948 35.1845 30.3375C35.5305 30.6835 35.7068 31.1078 35.7068 31.5974V31.8161C35.7068 32.3056 35.5305 32.7299 35.1845 33.0759C34.8386 33.4186 34.4143 33.5916 33.9247 33.5916H32.1492V31.5974ZM54.8688 31.8161C54.8688 32.3024 54.6925 32.7234 54.3466 33.0694C54.0006 33.4154 53.5763 33.5916 53.0867 33.5916H51.3112V31.5909C51.3112 31.1013 51.4875 30.6802 51.8334 30.3375C52.1761 29.9916 52.5972 29.8153 53.0867 29.8153C53.5763 29.8153 54.0006 29.9916 54.3466 30.3375C54.6925 30.6802 54.8688 31.1013 54.8688 31.5909V31.8161Z" fill="#290C51"/>
<path d="M3.1755 40.018H3.78258C3.85764 40.018 3.86744 39.9952 3.86744 39.9397V39.2119C3.86744 39.1564 3.85438 39.1335 3.78258 39.1335H3.1755C3.11349 39.1335 3.09717 39.1499 3.09717 39.2119V39.9397C3.09717 40.0017 3.11349 40.018 3.1755 40.018Z" fill="#290C51"/>
<path d="M1.53732 40.018H2.14439C2.2162 40.018 2.22925 39.9952 2.22925 39.9397V39.2119C2.22925 39.1564 2.2162 39.1335 2.14439 39.1335H1.53732C1.4753 39.1335 1.45898 39.1499 1.45898 39.2119V39.9397C1.45898 40.0017 1.4753 40.018 1.53732 40.018Z" fill="#290C51"/>
<path d="M10.0658 48.2229H9.4587C9.40322 48.2229 9.38037 48.236 9.38037 48.3078V49.0291C9.38037 49.0911 9.39669 49.1074 9.4587 49.1074H10.0658C10.1376 49.1074 10.1506 49.0813 10.1506 49.0291V48.3078C10.1506 48.2425 10.1311 48.2229 10.0658 48.2229Z" fill="#290C51"/>
<path d="M11.7074 48.2229H11.1068C11.0416 48.2229 11.022 48.2425 11.022 48.3078V49.0291C11.022 49.0846 11.035 49.1074 11.1068 49.1074H11.7074C11.7792 49.1074 11.7922 49.0813 11.7922 49.0291V48.3078C11.7922 48.2425 11.7727 48.2229 11.7074 48.2229Z" fill="#290C51"/>
<path d="M26.7734 40.018H27.3739C27.4458 40.018 27.4588 39.9952 27.4588 39.9397V39.2119C27.4588 39.1564 27.4458 39.1335 27.3739 39.1335H26.7734C26.7114 39.1335 26.6951 39.1499 26.6951 39.2119V39.9397C26.6951 40.0017 26.7114 40.018 26.7734 40.018Z" fill="#290C51"/>
<path d="M35.6183 48.2229H35.0112C34.9557 48.2229 34.9329 48.236 34.9329 48.3078V49.0291C34.9329 49.0911 34.9492 49.1074 35.0112 49.1074H35.6183C35.6901 49.1074 35.7031 49.0813 35.7031 49.0291V48.3078C35.7031 48.2425 35.6835 48.2229 35.6183 48.2229Z" fill="#290C51"/>
<path d="M37.2601 48.2229H36.653C36.5976 48.2229 36.5747 48.236 36.5747 48.3078V49.0291C36.5747 49.0911 36.591 49.1074 36.653 49.1074H37.2601C37.3319 49.1074 37.345 49.0813 37.345 49.0291V48.3078C37.345 48.2425 37.3254 48.2229 37.2601 48.2229Z" fill="#290C51"/>
<path d="M40.315 41.6438H39.7438C39.6688 41.6438 39.659 41.6666 39.659 41.7221V45.4005C39.659 45.6518 39.5969 45.8411 39.4729 45.9619C39.3587 46.0826 39.1726 46.1446 38.9279 46.1479H33.0529C32.8179 46.1479 32.6352 46.0859 32.5079 45.9619C32.3904 45.8378 32.3284 45.6485 32.3284 45.4005V38.7194C32.3284 38.6541 32.3088 38.6345 32.2435 38.6345H31.6723C31.6168 38.6345 31.594 38.6476 31.594 38.7194V45.4005C31.594 45.8607 31.7278 46.2262 31.9954 46.4906C32.2598 46.755 32.6188 46.8855 33.0725 46.8855H38.9181C39.3619 46.8855 39.7242 46.7517 39.9951 46.4906C40.266 46.223 40.4031 45.8574 40.4031 45.4005V41.7221C40.4031 41.6666 40.3901 41.6438 40.3183 41.6438" fill="#290C51"/>
<path d="M53.3248 38.6345H52.7471C52.6916 38.6345 52.6688 38.6476 52.6688 38.7194V45.407C52.6688 45.6518 52.6068 45.8411 52.4828 45.9684C52.3685 46.0892 52.1825 46.1512 51.9377 46.1577C51.9246 46.1577 51.9148 46.1577 51.9051 46.1512H43.8793V41.7352C43.8793 41.6601 43.8564 41.6503 43.8009 41.6503H43.2232C43.1579 41.6503 43.1384 41.6699 43.1384 41.7352V47.0291C43.1384 47.4632 43.0339 47.7864 42.825 47.9952C42.6227 48.2041 42.2995 48.3086 41.8655 48.3086H41.2453C41.1833 48.3086 41.167 48.3249 41.167 48.3869V48.9646C41.167 49.0266 41.1833 49.0429 41.2453 49.0429H41.8655C42.4921 49.0429 42.9915 48.8634 43.344 48.5077C43.6997 48.1584 43.8793 47.6591 43.8793 47.0291V46.8855H51.9214C52.3685 46.8855 52.7341 46.7517 53.005 46.4906C53.2726 46.223 53.4064 45.8574 53.4064 45.4005V38.7194C53.4064 38.6443 53.3836 38.6345 53.3281 38.6345" fill="#290C51"/>
<path d="M55.515 38.6345H54.934C54.872 38.6345 54.8557 38.6508 54.8557 38.7129V46.8072C54.8557 46.8692 54.872 46.8855 54.934 46.8855H55.515C55.5705 46.8855 55.5901 46.8725 55.5901 46.8072V38.7129C55.5901 38.6443 55.5672 38.6345 55.515 38.6345Z" fill="#290C51"/>
<path d="M29.4203 42.1495C28.9829 41.6534 28.3857 41.402 27.6513 41.402C26.7929 41.402 25.7452 41.9699 24.5408 43.0927L24.4005 43.2233V41.8851C24.4005 41.8165 24.3809 41.8068 24.3254 41.8068H23.7477C23.6727 41.8068 23.6629 41.8296 23.6629 41.8851V46.1509H15.7154C15.327 46.1509 15.0692 46.0791 14.9255 45.9323C14.8407 45.8474 14.7983 45.7234 14.7983 45.5602V41.7252C14.7983 41.6599 14.7787 41.6403 14.7134 41.6403H14.1422C14.0867 41.6403 14.0639 41.6534 14.0639 41.7252V45.3905C14.0639 45.6483 14.0019 45.8409 13.8779 45.9584C13.7571 46.0824 13.5776 46.1444 13.3393 46.1444H5.2156V43.9119C5.2156 43.22 4.96755 42.6227 4.4845 42.1331C3.99492 41.6436 3.39437 41.3955 2.7057 41.3955C2.01703 41.3955 1.41974 41.6436 0.93343 42.1331C0.443853 42.6227 0.195801 43.2233 0.195801 43.9119V44.3656C0.195801 45.0575 0.443853 45.6548 0.93343 46.1444C1.41974 46.634 2.01703 46.882 2.7057 46.882H13.3197C13.7767 46.882 14.139 46.7482 14.4001 46.4871C14.4556 46.4284 14.5012 46.2978 14.5012 46.2978C14.5012 46.2978 14.56 46.4284 14.5796 46.4545C14.8505 46.7874 15.265 46.8722 15.8035 46.8788L28.0788 46.882C28.7055 46.882 29.2049 46.7025 29.5574 46.3468C29.9131 45.9975 30.0926 45.5014 30.0926 44.8748V44.16C30.0926 43.3244 29.8674 42.6456 29.4236 42.1495M4.48776 46.1477H2.7057C2.21612 46.1477 1.79509 45.9714 1.45238 45.6255C1.10641 45.2795 0.930166 44.8552 0.930166 44.3656V43.9119C0.930166 43.4224 1.10641 42.9981 1.45238 42.6521C1.79509 42.3094 2.21612 42.1364 2.7057 42.1364C3.19528 42.1364 3.61958 42.3094 3.96554 42.6521C4.31151 42.9981 4.48776 43.4224 4.48776 43.9119V46.1477ZM29.3518 44.8748C29.3518 45.3089 29.2473 45.632 29.0384 45.8343C28.8328 46.0432 28.5097 46.1477 28.0788 46.1477H24.4038V44.2155L24.4233 44.1926C24.8672 43.6345 25.4123 43.1482 26.0487 42.7467C26.6885 42.342 27.227 42.1364 27.6546 42.1364C28.3302 42.1364 28.8165 42.4204 29.0972 42.9817C29.2669 43.3147 29.3518 43.7128 29.3518 44.16V44.8748Z" fill="#290C51"/>
<path d="M3.01253 52.613H2.90809C2.80691 52.613 2.7449 52.6751 2.7449 52.7762V57.7438C2.7449 58.0637 2.63066 58.3411 2.40546 58.5663C2.18025 58.7915 1.90609 58.9057 1.58623 58.9057C1.26637 58.9057 0.995473 58.7948 0.767004 58.5663C0.541799 58.3411 0.427564 58.0637 0.427564 57.7438V56.0727C0.427564 55.9715 0.365551 55.9128 0.264372 55.9128H0.159929C0.0587492 55.9128 0 55.9715 0 56.0727V57.7438C0 58.1812 0.156665 58.5565 0.463466 58.8666C0.773532 59.1734 1.15214 59.33 1.58623 59.33C2.02032 59.33 2.39566 59.1734 2.70573 58.8666C3.01253 58.5565 3.1692 58.1812 3.1692 57.7438V52.7762C3.1692 52.6751 3.11045 52.613 3.01253 52.613Z" fill="#290C51"/>
<path d="M35.3181 58.5662H35.2136C35.0961 58.5662 35.0276 58.6347 35.0276 58.7522V59.0623C35.0276 59.1798 35.0961 59.2483 35.2136 59.2483H35.3181C35.4356 59.2483 35.5041 59.1798 35.5041 59.0623V58.7522C35.5041 58.6347 35.4356 58.5662 35.3181 58.5662Z" fill="#290C51"/>
<path d="M35.824 54.48H35.7228C35.6216 54.48 35.5596 54.542 35.5596 54.6431V57.0812C35.5596 57.2412 35.5204 57.3652 35.4388 57.4435C35.3605 57.5219 35.2398 57.561 35.0798 57.561H22.4259C22.2398 57.561 22.0962 57.5088 21.9885 57.4011C21.9037 57.3162 21.8645 57.2118 21.8645 57.0812V56.0238C21.8645 55.5146 21.7274 55.1033 21.4598 54.7965C21.1889 54.4865 20.8233 54.3298 20.3762 54.3298C19.8213 54.3298 19.1718 54.6921 18.4473 55.4102V52.7762C18.4473 52.6751 18.3885 52.613 18.2873 52.613H18.1862C18.085 52.613 18.023 52.6751 18.023 52.7762V57.561H5.17972C5.01979 57.561 4.90229 57.5219 4.8207 57.4403C4.7391 57.3619 4.69667 57.2412 4.69667 57.0812V52.773C4.69667 52.6718 4.63792 52.613 4.54001 52.613H4.43556C4.33438 52.613 4.27563 52.6718 4.27563 52.773V57.0812C4.27563 57.3619 4.35723 57.5839 4.52042 57.7405C4.68362 57.9037 4.90229 57.9853 5.17646 57.9853H20.6308C21.0812 57.9853 21.4141 57.8417 21.623 57.561C21.6556 57.61 21.6915 57.6589 21.7372 57.6981C21.9135 57.8744 22.1452 57.9657 22.4259 57.9788V57.9853H35.0798C35.354 57.9853 35.5727 57.9037 35.7359 57.7438C35.9023 57.5806 35.9839 57.3587 35.9839 57.0812V54.6431C35.9839 54.542 35.9219 54.48 35.8207 54.48M21.4337 56.0238V56.7581C21.4337 57.2999 21.1693 57.561 20.6308 57.561H18.4407V56.014C19.2012 55.1752 19.8507 54.7476 20.3697 54.7476C20.6079 54.7476 20.8168 54.8129 20.9931 54.9402C21.2868 55.1523 21.4337 55.5146 21.4337 56.0205" fill="#290C51"/>
<path d="M37.6975 52.6393H38.7321C38.8333 52.6393 38.8953 52.5773 38.8953 52.4761V52.4566C38.8953 52.3554 38.8333 52.2966 38.7321 52.2966H38.1316V51.9311C38.1316 51.8723 38.1511 51.8234 38.1903 51.7842C38.2327 51.745 38.2784 51.7255 38.3339 51.7255C38.4253 51.7255 38.484 51.7646 38.5232 51.8495L38.533 51.8625C38.5559 51.9245 38.6048 51.9572 38.6636 51.9572C38.6864 51.9572 38.7093 51.9507 38.7419 51.9409L38.7517 51.9343C38.8431 51.8984 38.8561 51.8332 38.8561 51.7973C38.8561 51.7744 38.8496 51.7516 38.8431 51.7255L38.8365 51.7091C38.7419 51.4872 38.5722 51.3762 38.3339 51.3762C38.1838 51.3762 38.0532 51.4317 37.9488 51.5394C37.8411 51.6439 37.7856 51.7744 37.7856 51.9278V52.2934H37.6909C37.5898 52.2934 37.531 52.3521 37.531 52.4533V52.4729C37.531 52.5741 37.5898 52.6361 37.6909 52.6361" fill="#290C51"/>
<path d="M38.1641 53.2268H38.2685C38.3566 53.2268 38.4284 53.2986 38.4284 53.3867V56.6343C38.4284 56.7224 38.3566 56.7942 38.2685 56.7942H38.1641C38.076 56.7942 38.0042 56.7224 38.0042 56.6343V53.3867C38.0042 53.2986 38.076 53.2268 38.1641 53.2268Z" fill="#290C51"/>
<path d="M41.0462 52.6165H40.9418C40.8406 52.6165 40.7818 52.6752 40.7818 52.7764V56.755C40.7818 57.3001 40.5175 57.5644 39.9724 57.5644H36.999C36.8979 57.5644 36.8391 57.6232 36.8391 57.7244V57.8288C36.8391 57.93 36.8979 57.9887 36.999 57.9887H39.9724C40.3608 57.9887 40.6643 57.881 40.8798 57.6656C41.0952 57.4502 41.2029 57.1434 41.2029 56.755V52.7764C41.2029 52.6752 41.1441 52.6165 41.0462 52.6165Z" fill="#290C51"/>
<path d="M42.5766 52.613H42.4722C42.371 52.613 42.3123 52.6718 42.3123 52.773V57.8287C42.3123 57.9298 42.371 57.9886 42.4722 57.9886H42.5766C42.6745 57.9886 42.7333 57.9298 42.7333 57.8287V52.773C42.7333 52.6718 42.6745 52.613 42.5766 52.613Z" fill="#290C51"/>
<path d="M49.6725 53.5733H49.7705C49.888 53.5733 49.9598 53.5047 49.9598 53.3872V53.0772C49.9598 52.9597 49.888 52.8911 49.7705 52.8911H49.6725C49.6236 52.8911 49.5779 52.9074 49.5355 52.9466C49.4996 52.9825 49.48 53.0282 49.48 53.0772V53.3872C49.48 53.5047 49.5518 53.5733 49.6693 53.5733" fill="#290C51"/>
<path d="M50.2011 54.3301C49.6397 54.3301 48.9934 54.6793 48.2754 55.368V54.7446C48.2754 54.6434 48.2134 54.5814 48.1122 54.5814H48.0143C47.9131 54.5814 47.8511 54.6434 47.8511 54.7446V57.7473C47.8511 58.0672 47.7369 58.3446 47.5117 58.5698C47.2865 58.795 47.0123 58.9093 46.6924 58.9093C46.3726 58.9093 46.0951 58.795 45.8699 58.5698C45.6447 58.3446 45.5305 58.0672 45.5305 57.7473V56.0762C45.5305 55.9751 45.4718 55.9163 45.3706 55.9163H45.2661C45.165 55.9163 45.1062 55.9751 45.1062 56.0762V57.7473C45.1062 58.1847 45.2629 58.56 45.5697 58.8701C45.8765 59.1769 46.2551 59.3336 46.6924 59.3336C47.0939 59.3336 47.4464 59.1965 47.7467 58.9288C48.0273 58.6743 48.2003 58.3609 48.2591 57.9921H50.4654C50.8506 57.9921 51.1574 57.8844 51.3761 57.669C51.5915 57.4536 51.6992 57.1468 51.6992 56.7649V56.0305C51.6992 55.5214 51.5621 55.1069 51.2945 54.8033C51.0236 54.4933 50.658 54.3366 50.2076 54.3366M50.4687 57.5711H48.2819V55.9751C48.5039 55.6748 48.8074 55.3941 49.1827 55.1395C49.5548 54.8882 49.8975 54.7609 50.2043 54.7609C50.4426 54.7609 50.6547 54.8262 50.8343 54.9502C51.128 55.1624 51.2749 55.5246 51.2749 56.0305V56.7649C51.2749 57.3067 51.0105 57.5678 50.4654 57.5678" fill="#290C51"/>
<path d="M53.4327 54.4832H53.3315C53.2303 54.4832 53.1683 54.5419 53.1683 54.6431V58.3475C53.1683 58.8893 52.9039 59.1537 52.3621 59.1537H52.1043C52.0031 59.1537 51.9443 59.2125 51.9443 59.3136V59.4181C51.9443 59.5193 52.0031 59.578 52.1043 59.578H52.3621C52.7505 59.578 53.054 59.4703 53.2695 59.2549C53.4849 59.0395 53.5926 58.7359 53.5926 58.3475V54.6431C53.5926 54.5419 53.5338 54.4832 53.4327 54.4832Z" fill="#290C51"/>
<path d="M55.0256 52.613H54.9244C54.8232 52.613 54.7612 52.6718 54.7612 52.773V57.8287C54.7612 57.9298 54.8232 57.9886 54.9244 57.9886H55.0256C55.1235 57.9886 55.1823 57.9298 55.1823 57.8287V52.773C55.1823 52.6718 55.1235 52.613 55.0256 52.613Z" fill="#290C51"/>
<path d="M55.4886 51.7351H54.8881V51.3695C54.8881 51.3108 54.9076 51.2651 54.9501 51.2259C54.9892 51.1868 55.0349 51.1672 55.0937 51.1672C55.1883 51.1672 55.2471 51.2063 55.2797 51.2847L55.2862 51.301C55.3026 51.3434 55.3352 51.3728 55.3744 51.3858C55.4168 51.4022 55.4592 51.4022 55.4951 51.3858L55.5115 51.3793C55.5571 51.363 55.5865 51.3304 55.5996 51.2912C55.6061 51.2716 55.6126 51.252 55.6126 51.2324C55.6126 51.2129 55.6094 51.1933 55.6028 51.177L55.5963 51.1606C55.5017 50.9387 55.3319 50.8245 55.0937 50.8245C54.9403 50.8245 54.8097 50.8767 54.7053 50.9844C54.6008 51.0921 54.5454 51.2227 54.5454 51.3728V51.7383H54.4507C54.3495 51.7383 54.2908 51.7971 54.2908 51.8983V51.9211C54.2908 52.0223 54.3495 52.081 54.4507 52.081H55.4853C55.5865 52.081 55.6453 52.0223 55.6453 51.9211V51.8983C55.6453 51.7971 55.5865 51.7383 55.4853 51.7383" fill="#290C51"/>
<path d="M113.987 6.44936C113.964 6.27638 113.82 6.14909 113.647 6.14909H109.267C109.111 6.14909 108.973 6.25353 108.934 6.40693C108.484 8.13024 106.881 9.58266 106.111 9.58266C105.55 9.58266 104.894 9.4162 104.747 8.67531V8.07149C104.789 7.88545 104.871 7.72226 104.978 7.58844C104.995 8.24121 105.53 8.77322 106.189 8.77322C106.858 8.77322 107.4 8.22816 107.4 7.56233C107.4 6.89325 106.858 6.35145 106.189 6.35145C105.687 6.35145 105.174 6.52769 104.776 6.83776C104.766 6.84429 104.76 6.85408 104.75 6.86061V6.26006C104.75 6.07076 104.597 5.91735 104.407 5.91735H94.1882L93.8455 4.93494C93.7998 4.80112 93.679 4.713 93.5387 4.70647C93.3983 4.69994 93.2678 4.77827 93.2123 4.90556L91.4923 8.65899L91.2442 8.24448C91.0255 7.69615 91.0321 7.07276 91.2573 6.53749L92.2691 4.28543C92.6248 3.44009 92.6183 2.47073 92.2495 1.63192L91.6261 0.205622C91.5739 0.0815962 91.4498 0 91.3127 0C91.1757 0 91.0516 0.0815962 90.9994 0.205622L88.5254 5.91735H75.9302C75.7409 5.91735 75.5875 6.07076 75.5875 6.26006V6.85408C75.5875 6.85408 75.5745 6.84429 75.5679 6.83776C75.1698 6.52769 74.6541 6.35145 74.1547 6.35145C73.4856 6.35145 72.9438 6.89325 72.9438 7.56233C72.9438 8.23142 73.4856 8.77322 74.1547 8.77322C74.8238 8.77322 75.3493 8.24448 75.3656 7.58844C75.4668 7.71247 75.5451 7.85934 75.5875 8.02906V8.71774C75.4243 9.42273 74.7846 9.58592 74.233 9.58592C73.4628 9.58592 71.857 8.13351 71.4098 6.4102C71.3706 6.26006 71.2336 6.15562 71.0769 6.15562H66.6968C66.5238 6.15562 66.377 6.28617 66.3574 6.45589C66.3443 6.55707 66.0897 8.90378 68.4038 11.8053C67.5552 12.8889 67.0624 14.3316 67.0624 15.7872V21.7405C67.0624 21.9004 67.1701 22.0375 67.3267 22.0734C67.3528 22.0799 67.379 22.0832 67.4051 22.0832C67.5324 22.0832 67.6531 22.0114 67.7119 21.8939L69.5298 18.2514H72.6664C72.8035 18.2514 72.9308 18.1666 72.983 18.0393C73.0352 17.9087 73.0058 17.7619 72.9079 17.6639L70.9529 15.7056L71.5763 15.0822C73.3942 16.8871 75.2546 18.7345 75.705 19.1784V20.8984C75.705 22.0571 75.8617 23.2092 76.1718 24.3222C76.1783 24.345 76.1881 24.3646 76.1979 24.3842L73.3975 24.7334C73.3224 24.7432 73.2506 24.7759 73.1984 24.8313L71.3054 26.7179V24.9097C71.3054 24.3744 71.4522 23.8489 71.7362 23.3953L74.2037 19.4036C74.2951 19.2534 74.2591 19.0609 74.1253 18.9532C73.9882 18.8455 73.7924 18.8552 73.6717 18.9793L69.5592 23.0917C68.8869 23.7673 68.5148 24.6616 68.5148 25.6147V46.3727C68.5148 49.3885 69.6898 52.2216 71.8211 54.3528L89.8897 72.4182C89.8897 72.4182 89.9028 72.428 89.906 72.4346C89.9158 72.4444 89.9256 72.4541 89.9387 72.4607C89.9452 72.4672 89.955 72.4672 89.9615 72.4737C89.9746 72.4803 89.9844 72.4868 89.9974 72.4933C90.0072 72.4966 90.0137 72.4998 90.0235 72.5031C90.0366 72.5064 90.0496 72.5096 90.0627 72.5129C90.0725 72.5129 90.0855 72.5129 90.0986 72.5162C90.1084 72.5162 90.1182 72.5194 90.128 72.5194H90.1312C90.1312 72.5194 90.1378 72.5194 90.141 72.5194C90.1606 72.5194 90.1802 72.5194 90.1965 72.5129C90.2161 72.5096 90.2389 72.5031 90.2553 72.4933H90.2585C90.301 72.477 90.3369 72.4509 90.3695 72.4215L108.5 54.2876C110.628 52.1595 111.8 49.3331 111.803 46.3238L111.826 26.8451C111.826 26.6134 111.813 26.3882 111.79 26.1597C111.784 26.1108 111.78 26.0651 111.774 26.0161C111.754 25.8562 111.718 25.6408 111.686 25.4711C111.679 25.4384 111.669 25.4025 111.663 25.3731C111.389 24.1525 110.775 23.0297 109.868 22.1224L107.466 19.7202C106.845 19.1 106.049 18.7247 105.191 18.6333C105.925 17.9055 107.332 16.5118 108.765 15.0855L109.381 15.7024L107.423 17.6607C107.325 17.7586 107.296 17.9055 107.348 18.036C107.4 18.1633 107.528 18.2482 107.665 18.2482H110.804L112.622 21.8906C112.681 22.0081 112.802 22.0799 112.929 22.0799C112.955 22.0799 112.981 22.0799 113.008 22.0701C113.161 22.0342 113.272 21.8972 113.272 21.7372V15.784C113.272 14.3316 112.779 12.8922 111.934 11.8119C114.258 8.90051 113.996 6.55381 113.987 6.45263M106.193 7.03359C106.483 7.03359 106.718 7.26859 106.718 7.55907C106.718 7.84955 106.483 8.08455 106.193 8.08455C105.902 8.08455 105.667 7.84955 105.667 7.55907C105.667 7.26859 105.902 7.03359 106.193 7.03359ZM74.1514 8.08781C73.861 8.08781 73.626 7.85282 73.626 7.56233C73.626 7.27185 73.861 7.03685 74.1514 7.03685C74.4419 7.03685 74.6769 7.27185 74.6769 7.56233C74.6769 7.85282 74.4419 8.08781 74.1514 8.08781ZM104.065 6.60276V8.01927C104.058 8.0617 104.052 8.10413 104.045 8.14983C103.872 8.0617 103.673 8.00948 103.467 8.00948H94.8312C94.7953 7.65699 94.7039 7.30449 94.5603 6.97484L94.4297 6.60603H104.065V6.60276ZM94.5766 9.66751C94.7104 9.35419 94.792 9.0278 94.8279 8.69489H103.467C103.797 8.69489 104.065 8.96252 104.065 9.29217V14.2173C104.065 14.3087 104.022 14.3903 103.947 14.4393C103.872 14.4882 103.781 14.5013 103.696 14.4654L100.683 13.2773C100.644 13.261 100.602 13.2545 100.559 13.2545C100.047 13.2545 99.5605 13.4797 99.2308 13.8746L95.5688 18.2449C95.3697 18.4832 95.076 18.6202 94.7659 18.6202H94.5244C93.6431 18.6202 92.9022 19.2795 92.8011 20.1575L92.3082 24.4723L89.5372 23.7478C89.4197 23.7184 89.2957 23.7478 89.2076 23.8359L88.2611 24.7693L88.0489 22.7947C88.0228 22.5564 88.1044 22.3247 88.2708 22.155L92.5008 17.8826C92.6477 17.7325 92.8533 17.6476 93.0622 17.6476H93.8259C94.1458 17.6476 94.4428 17.491 94.619 17.2233C94.7985 16.959 94.8312 16.6228 94.7137 16.329L93.6268 13.6527C93.3853 12.9868 93.4114 12.2655 93.6986 11.6193L94.5668 9.66751H94.5766ZM101.32 34.1529C101.32 34.1529 101.32 34.1529 101.32 34.1562C101.32 34.1562 101.32 34.1562 101.323 34.1562L103.777 36.6236L98.0624 42.3386C98.379 41.2289 98.2876 40.0115 97.7523 38.9246L94.7985 32.942C95.1608 32.7494 95.497 32.5047 95.794 32.2044L96.388 31.6104C96.5219 31.4765 96.5219 31.2579 96.388 31.124C96.2542 30.9902 96.0355 30.9902 95.9017 31.124L95.311 31.7148C94.6517 32.3741 93.7737 32.7397 92.8402 32.7397H92.0504L92.5106 28.7186C92.8794 28.8491 93.2939 28.9275 93.7574 28.9275C93.9467 28.9275 94.1001 28.7741 94.1001 28.5848C94.1001 28.3955 93.9467 28.2421 93.7574 28.2421C91.4009 28.2421 90.5653 25.8203 90.5327 25.7159C90.5098 25.6506 90.4315 25.4711 90.1704 25.4711C90.0072 25.4711 89.831 25.6245 89.831 25.755C89.7102 25.8921 89.4295 26.1402 88.8747 26.3262C88.4471 26.4698 87.9902 26.4111 87.6572 26.3262L89.5503 24.456L92.4159 25.2034L98.7315 31.5483C98.7315 31.5483 98.7511 31.5777 98.7641 31.5908C98.7739 31.6006 98.7902 31.6136 98.8033 31.6202L101.313 34.1431L101.32 34.1529ZM99.5017 31.3525L100.899 29.9556C101.855 28.9993 102.645 27.9059 103.255 26.7048C103.774 27.449 104.071 28.353 104.071 29.3452C104.071 30.3636 103.676 31.3199 102.958 32.0379L101.568 33.4283L99.5017 31.3525ZM93.4636 43.0828V37.3906L95.3175 35.5368L97.142 39.2314C97.9155 40.8014 97.6055 42.6846 96.3685 43.9216L95.3469 44.9464L93.4669 43.0828H93.4636ZM94.9193 45.4882L93.6529 46.7546C92.2527 48.1548 91.2018 49.8128 90.5457 51.6243V46.3368L93.147 43.7356L94.9193 45.4915V45.4882ZM86.6911 26.5285C86.7107 26.6395 86.7793 26.7309 86.8772 26.7799C86.9229 26.8027 88.0261 27.338 89.0933 26.979C89.3903 26.881 89.6319 26.7603 89.8244 26.6428V27.6154H86.2538L86.0123 25.7191H87.3015L86.7858 26.2283C86.7075 26.3066 86.6716 26.4176 86.6879 26.5253M89.8244 28.3008V29.4236H86.5345L86.3648 28.3008H89.8244ZM89.8244 30.109V31.2513H86.7923L86.6324 30.109H89.8244ZM89.8244 31.9367V32.7397H87.0045L86.887 31.94H89.8244V31.9367ZM90.1671 33.4251C90.3564 33.4251 90.5098 33.2717 90.5098 33.0824V27.1226C90.8232 27.5697 91.2638 28.056 91.8545 28.4118L90.6143 39.2543L89.8571 39.7471L89.1847 33.4251H90.1671ZM76.2697 6.60276H88.2219L87.7552 7.67983C87.7095 7.78754 87.6736 7.89525 87.6507 8.00948H76.867C76.6613 8.00948 76.4688 8.05844 76.2958 8.14656C76.2893 8.08781 76.2795 8.02906 76.2697 7.97031V6.60603V6.60276ZM76.2697 9.29217C76.2697 8.96252 76.5373 8.69489 76.867 8.69489H87.6442C87.667 8.80586 87.6964 8.91357 87.7388 9.01801L88.4112 10.676C88.5124 10.9274 88.5091 11.2113 88.4047 11.4561L85.3105 18.3983L80.6955 13.7832C80.3658 13.4568 79.9317 13.2741 79.4715 13.2741C79.4258 13.2741 79.3801 13.2839 79.3377 13.3002L76.6418 14.4491C76.521 14.498 76.4231 14.4491 76.3872 14.4262C76.3513 14.4034 76.2664 14.3316 76.2664 14.201V9.28891L76.2697 9.29217ZM71.8406 17.566H69.3177C69.1871 17.566 69.0696 17.6411 69.0109 17.7586L67.7478 20.2913V15.7905C67.7478 14.9647 67.924 14.1488 68.2439 13.4111C68.3353 13.8877 68.5637 14.325 68.913 14.6743L71.8406 17.566ZM70.4535 15.2422L69.3993 14.1879C68.7628 13.5515 68.7204 12.543 69.2687 11.8543C69.2883 11.8347 69.3046 11.8151 69.3242 11.7955L70.1369 10.9828C70.7962 11.7466 71.4979 12.4712 71.9451 12.9183L72.3596 13.3328L70.4502 15.2422H70.4535ZM69.1937 25.6245C69.1937 24.8542 69.4939 24.1329 70.0357 23.5878L72.0691 21.5544L71.1487 23.0428C70.7995 23.6074 70.6167 24.2536 70.6167 24.9162V27.3151C70.6167 27.3412 70.62 27.3706 70.6297 27.3967L69.1937 28.8263V25.6245ZM69.1937 29.7957L73.5998 25.4058L77.4871 24.9195L75.0588 25.8627C75.0131 25.879 74.9739 25.9052 74.9413 25.9411L69.1969 31.6854V29.7957H69.1937ZM89.7592 55.7889C89.7592 55.8771 89.7559 55.9619 89.7559 56.0501C88.9367 53.2464 87.4222 50.6745 85.2975 48.5497L79.8403 43.0828C79.8403 43.0828 79.8077 43.0534 79.7881 43.0404L79.2006 42.4529C78.76 42.0155 78.773 41.4574 78.9265 41.082C79.0831 40.7067 79.4682 40.3052 80.0884 40.3052H82.1054C81.7921 41.849 82.2588 43.4842 83.4044 44.6298L86.0253 47.2213C87.9999 49.1535 89.2826 51.7091 89.6841 54.4247C89.7494 54.8751 89.7689 55.332 89.7559 55.7857M89.7722 61.0176V61.2853C89.3903 60.4758 88.8714 59.7317 88.2251 59.0985L83.1923 54.1472C83.1629 54.1113 83.1303 54.0754 83.0976 54.0428L79.8991 50.8442C79.5792 50.5276 79.5857 50.1196 79.7 49.8487C79.8142 49.5746 80.0949 49.2841 80.5453 49.2841H81.4984C82.2719 49.2841 82.9377 48.8402 83.2315 48.1254C83.3033 47.9524 83.349 47.7762 83.3685 47.6L84.8079 49.0393C88.0097 52.2411 89.7722 56.4972 89.7722 61.0242M83.8875 44.1501C82.6766 42.9392 82.3535 41.0886 83.0748 39.5382L84.9678 35.4715L86.887 37.3906V43.0861L84.8993 45.1586L83.8875 44.1468V44.1501ZM82.2947 39.6264C82.2947 39.6264 82.2752 39.6231 82.2654 39.6231H80.0851C79.3638 39.6231 78.7274 40.1355 78.3944 40.4946C77.7351 41.2028 71.746 47.2572 71.746 47.2572C71.7395 47.0451 71.7362 46.8427 71.7362 46.6567V35.4127C71.7362 35.3899 71.7362 35.3671 71.7297 35.3442L73.874 37.0969L75.7181 41.8099C75.7703 41.9437 75.8976 42.0286 76.0379 42.0286C76.0575 42.0286 76.0804 42.0286 76.1 42.022C76.2631 41.9927 76.3806 41.849 76.3806 41.6859V36.3952C76.3806 36.307 76.3447 36.2189 76.2827 36.1569L73.0972 32.88H76.7299L80.4735 35.1027C80.529 35.1353 80.5877 35.1516 80.6498 35.1516C80.7542 35.1516 80.8586 35.1027 80.9239 35.0146C81.0284 34.8742 81.012 34.6784 80.8848 34.5576L76.7136 30.1645C76.6613 30.1155 76.5961 30.0829 76.5243 30.0731L71.9973 29.8479L75.3689 26.4763L76.7658 25.9345C76.7658 25.9802 76.7756 26.0259 76.7952 26.0716C77.4381 27.524 78.3292 28.8296 79.4552 29.9523L84.4521 34.9493C84.4521 34.9493 82.3437 39.4925 82.2947 39.6198M72.1409 32.8735L75.6952 36.529V39.8614L74.4811 36.7574C74.4582 36.702 74.4223 36.653 74.3799 36.6171L69.7942 32.8735H72.1442H72.1409ZM69.6539 32.1881L71.387 30.455L76.3186 30.7356L78.6099 33.1509L76.9942 32.2338C76.942 32.2044 76.88 32.1848 76.818 32.1848H69.6473L69.6539 32.1881ZM72.2943 53.8763C70.2903 51.8756 69.1904 49.2123 69.1904 46.3825V33.2717L71.0475 34.7893V46.6534C71.0475 48.4126 71.276 51.3762 72.5424 54.1244L72.2943 53.8763ZM71.7884 48.1711L78.1464 41.8164C78.1986 42.2309 78.3879 42.6226 78.7045 42.9392L82.422 46.6534C82.7484 47.0516 82.7321 47.5281 82.595 47.8578C82.4481 48.2136 82.0826 48.5954 81.4951 48.5954H80.5421C80.1537 48.5954 79.8012 48.726 79.5237 48.9577C79.4487 48.9642 73.6292 54.7412 73.6292 54.7412C72.3792 52.5447 71.932 50.0609 71.7917 48.1711M74.5725 56.1545C74.5627 56.1316 74.5496 56.1088 74.53 56.086C74.3375 55.8444 74.1645 55.5964 73.9948 55.3418L78.946 50.3873C78.9885 50.7332 79.1451 51.0629 79.4095 51.3273L82.4906 54.4083C82.5036 54.4312 82.5199 54.4508 82.5395 54.4703L82.6799 54.6107C82.9018 54.8946 82.8888 55.2308 82.7941 55.4626C82.6864 55.7204 82.422 55.9946 82.001 55.9946C81.5734 55.9946 81.1883 56.1545 80.8978 56.4319C80.7738 56.5625 78.0876 59.2454 77.8755 59.4575L74.5725 56.1545ZM78.3781 59.9601L80.4278 57.9072C80.4898 58.2107 80.64 58.4947 80.875 58.7297L87.0632 64.8037C88.8159 66.5237 89.8049 68.9129 89.7885 71.3673L78.3781 59.9601ZM89.8179 67.7999C89.3185 66.4976 88.5483 65.3031 87.543 64.3141L81.358 58.2434C81.0414 57.9235 81.048 57.5188 81.1589 57.2446C81.1785 57.1957 81.2046 57.15 81.234 57.101C81.234 57.101 81.3058 56.9966 81.3678 56.9378C81.5179 56.7909 81.7301 56.6832 82.0043 56.6832C82.6407 56.6832 83.189 56.3177 83.4306 55.7302C83.4697 55.6355 83.4991 55.5344 83.5187 55.4364L87.7421 59.5913C89.0607 60.8903 89.8146 62.692 89.8146 64.5426V67.7999H89.8179ZM89.8571 52.1759C89.1978 50.1327 88.0522 48.2527 86.5018 46.7383L85.3856 45.6449L87.2362 43.716L89.8571 46.3368V52.1759ZM90.1998 45.7102L87.5724 43.0861V37.2503C87.5724 37.1589 87.5365 37.074 87.4712 37.0088L85.1082 34.649C85.1082 34.649 85.1017 34.6425 85.0984 34.6392L79.935 29.4758C78.871 28.4151 78.0256 27.1781 77.4185 25.804C77.4022 25.7713 77.3826 25.7387 77.3565 25.7126L80.3168 24.567C80.4768 24.505 80.5682 24.332 80.5257 24.1623C80.4833 23.9958 80.3234 23.8848 80.1504 23.9044L76.8735 24.3189C76.8539 24.2732 76.8409 24.208 76.8245 24.1525C76.5308 23.0982 76.3839 22.0081 76.3839 20.9115V19.0478C76.3839 18.9564 76.348 18.8683 76.2827 18.803C76.2827 18.803 74.1384 16.6783 72.056 14.609L72.8426 13.8224L75.6365 16.6162C75.7018 16.6815 75.7899 16.7174 75.878 16.7174C75.9661 16.7174 76.0543 16.6815 76.1195 16.6162C76.2534 16.4824 76.2534 16.2638 76.1195 16.1299L72.4281 12.4353C70.8223 10.8294 69.5853 9.32808 69.2296 8.57739H70.0161C70.225 8.57739 70.3948 8.38809 70.3523 8.16615C70.3229 8.00295 70.1695 7.88872 70.0031 7.88872H68.7824C68.5996 7.88872 68.443 8.03233 68.4397 8.2151C68.4267 8.721 68.9848 9.57613 69.6865 10.4443L68.9064 11.2244C68.8869 11.244 68.8738 11.2635 68.8575 11.2799C67.268 9.23995 67.046 7.51338 67.0265 6.84102H70.8125C71.3772 8.58065 73.0319 10.2713 74.2265 10.2713C74.7781 10.2713 75.235 10.1408 75.581 9.89925V14.201C75.581 14.5241 75.7409 14.8211 76.0086 14.9974C76.2762 15.1736 76.6124 15.2063 76.9094 15.079L79.5368 13.9595C79.7914 13.9758 80.0296 14.0802 80.2124 14.263L85.0135 19.0641L84.1943 20.9017C83.9887 21.3651 84.129 21.871 84.5468 22.1583C84.9646 22.4487 85.4868 22.3998 85.8458 22.0408L90.4152 17.4975C90.6763 17.2233 90.7318 16.8186 90.5588 16.4824L89.8897 14.9843C89.8505 14.8962 89.8473 14.795 89.8832 14.7069L91.1561 11.43C91.2246 11.2537 91.1365 11.0547 90.9603 10.9861C90.784 10.9176 90.5849 11.0057 90.5164 11.1819L89.1358 14.733C89.1031 14.8179 89.1064 14.9125 89.1423 14.9974L89.9354 16.7762C89.9354 16.7762 89.9419 16.7925 89.9452 16.799C89.9876 16.8741 89.9746 16.9687 89.9224 17.0242L85.3628 21.561C85.18 21.7437 84.9907 21.636 84.9352 21.6001C84.883 21.5642 84.7132 21.4239 84.8177 21.1889L89.0313 11.7368C89.2076 11.3223 89.2141 10.8425 89.0444 10.4247L88.372 8.76669C88.2676 8.50885 88.2708 8.2151 88.3818 7.96052L91.3095 1.20762L91.6195 1.91261C91.9133 2.5817 91.9166 3.35197 91.6391 4.0178L90.6273 6.26985C90.3238 6.98463 90.3205 7.81039 90.6143 8.52843C90.6208 8.54149 90.6339 8.56434 90.6404 8.57739L91.2344 9.57613C91.2997 9.6871 91.4172 9.74911 91.5477 9.74258C91.675 9.73606 91.7893 9.65772 91.8415 9.54349L93.4799 5.96958L93.9173 7.21963C93.9173 7.21963 93.9304 7.249 93.9336 7.2588C94.0805 7.58844 94.1556 7.94094 94.1621 8.2967C94.1588 8.31628 94.1556 8.33587 94.1556 8.35871C94.1556 8.3783 94.1556 8.39462 94.1621 8.41093C94.1556 8.74711 94.0838 9.08329 93.9499 9.39662L93.085 11.3451C92.7227 12.1546 92.6934 13.0619 92.9969 13.8975C92.9969 13.9007 93.0002 13.904 93.0002 13.9073L94.087 16.5901C94.136 16.7109 94.087 16.8088 94.0609 16.8447C94.0381 16.8806 93.9663 16.9655 93.8357 16.9655H93.072C92.6803 16.9655 92.2984 17.1254 92.0243 17.4028L87.7943 21.6752C87.481 21.9918 87.3276 22.4259 87.3765 22.8698L87.6115 25.037H85.6173C85.5194 25.037 85.428 25.0794 85.3628 25.1512C85.2975 25.223 85.2681 25.3209 85.2779 25.4188L86.5639 33.1248C86.5834 33.301 86.7303 33.4316 86.9033 33.4316H88.5058L89.2435 40.3836C89.2565 40.5011 89.3283 40.6055 89.4393 40.6577C89.485 40.6806 89.5372 40.6904 89.5862 40.6904C89.6515 40.6904 89.7167 40.6708 89.7722 40.6349L91.1332 39.7471C91.2181 39.6916 91.2736 39.6003 91.2866 39.4991L91.9818 33.4316H92.8468C93.3037 33.4316 93.7508 33.3565 94.1751 33.2162L95.0009 34.8873L92.8827 37.0055C92.8174 37.0708 92.7815 37.1589 92.7815 37.247V43.1317L90.2063 45.7069L90.1998 45.7102ZM111.115 46.3336C111.111 49.1601 110.008 51.8168 108.011 53.8143L90.5033 71.3216V70.6721C90.66 68.4951 91.5771 66.4683 93.1274 64.9114L109.065 48.8892C109.966 47.9851 110.651 46.9309 111.111 45.7787V46.3368L111.115 46.3336ZM90.5066 67.6628L90.5164 64.5099C90.5164 62.6528 91.2377 60.9099 92.5497 59.5979L109.153 42.9947C109.982 42.1656 110.631 41.2061 111.092 40.1649V42.3321C111.092 44.6233 110.204 46.7807 108.585 48.4029L92.6477 64.4251C91.7109 65.3651 90.9929 66.465 90.5098 67.6628M111.141 29.6455L111.131 37.3906C111.108 37.4363 111.092 37.4885 111.092 37.544V37.7268C110.818 39.5285 109.982 41.193 108.67 42.5083L92.0667 59.1115C91.4074 59.7708 90.8819 60.5346 90.5098 61.3603L90.549 54.5128C90.6991 51.7614 92.1516 49.2319 94.1392 47.2409L109.055 32.3219C109.979 31.3982 110.68 30.3179 111.141 29.1364V29.6455ZM106.982 20.2163L109.385 22.6185C110.321 23.5552 110.909 24.7498 111.085 26.039C111.013 28.229 110.129 30.282 108.572 31.8388L104.267 36.1438L102.051 33.9179L103.441 32.5275C104.29 31.6789 104.757 30.5496 104.757 29.3518C104.757 27.0997 103.435 25.2524 101.447 24.4234C101.45 24.4103 101.457 24.3973 101.463 24.3842C101.47 24.3548 101.672 23.6923 102.759 23.6923C103.892 23.6923 104.215 24.2765 104.225 24.2961C104.293 24.4397 104.453 24.518 104.61 24.4821C104.766 24.4462 104.877 24.3059 104.877 24.1459C104.877 23.7706 104.766 23.405 104.548 23.0656C104.11 22.3769 103.34 21.969 102.485 21.969H100.902C100.347 21.969 99.8216 21.7927 99.381 21.4729L100.579 20.2456C101.16 19.6516 101.966 19.3089 102.798 19.3089H104.796C105.625 19.3089 106.402 19.632 106.986 20.2163M100.804 24.1916C100.249 24.0317 99.6551 23.9468 99.0285 23.9468L97.2236 23.9632C96.7275 23.9697 96.2771 24.1557 95.9278 24.4593V24.3287C95.9344 24.2536 95.9931 23.6368 96.3652 23.0395C96.845 22.2627 97.6316 21.8449 98.7021 21.796C99.3059 22.3476 100.083 22.6478 100.905 22.6478H102.488C102.965 22.6478 103.418 22.8306 103.741 23.1407C103.474 23.0526 103.154 22.9971 102.762 22.9971C101.202 22.9971 100.846 24.0448 100.807 24.1884M107.867 13.2153L108.164 12.9183C108.637 12.4451 109.391 11.6683 110.08 10.8556C110.08 10.8556 110.08 10.8588 110.083 10.8621L111.017 11.7955C111.036 11.8151 111.056 11.8347 111.072 11.8543C111.624 12.543 111.578 13.5482 110.942 14.1879L109.887 15.2422L107.864 13.2186L107.867 13.2153ZM112.1 13.4079C112.42 14.1423 112.596 14.9582 112.596 15.784V20.2848L111.333 17.7553C111.274 17.6378 111.157 17.566 111.026 17.566H108.503L111.431 14.671C111.78 14.3218 112.009 13.8844 112.1 13.4111M111.49 11.2864C111.47 11.2668 111.451 11.244 111.431 11.2244L110.524 10.3203C111.163 9.50759 111.663 8.72426 111.669 8.24448C111.669 8.05191 111.516 7.89198 111.323 7.89198H110.116C109.93 7.89198 109.763 8.03233 109.753 8.21837C109.744 8.41746 109.9 8.58065 110.096 8.58065H110.883C110.527 9.32808 109.29 10.8327 107.684 12.4385L103.993 16.1332C103.859 16.267 103.859 16.4857 103.993 16.6195C104.058 16.6848 104.146 16.7207 104.234 16.7207C104.322 16.7207 104.411 16.6848 104.476 16.6195L107.384 13.7082L108.291 14.6122C106.411 16.4824 104.574 18.3037 104.247 18.6235H102.805C101.79 18.6235 100.804 19.0413 100.096 19.7659L98.7804 21.1138C95.4513 21.202 95.249 24.2765 95.2457 24.3059V25.396C95.2457 25.6604 95.5198 25.8301 95.7548 25.7126C95.8528 25.6636 95.9246 25.5755 95.9441 25.4678C96.0192 25.0174 96.4141 24.6649 96.8874 24.6584L99.035 24.6388C100.553 24.6388 101.875 25.2034 102.782 26.1336C102.188 27.3771 101.395 28.4999 100.419 29.4758L99.0252 30.8727L92.974 24.7922L93.4963 20.2424C93.5583 19.7136 94.0054 19.3154 94.5374 19.3154H94.779C95.2914 19.3154 95.7777 19.0902 96.1073 18.6953L99.7694 14.325C99.9554 14.1031 100.223 13.9693 100.51 13.9529L103.458 15.1149C103.817 15.2552 104.228 15.1704 104.502 14.8831C104.678 14.7004 104.763 14.4491 104.763 14.1945V9.90578C105.109 10.1506 105.566 10.2844 106.124 10.2844C107.315 10.2844 108.97 8.59371 109.535 6.85082H113.321C113.301 7.52643 113.079 9.25627 111.487 11.2962M104.228 20.2881C104.257 20.3566 104.241 20.4349 104.189 20.4872L103.823 20.8527C103.735 20.9408 103.631 21.0126 103.52 21.0649C103.382 21.1269 103.239 21.1595 103.089 21.1595H103.082L101.519 21.153C101.444 21.153 101.378 21.1073 101.349 21.0388C101.32 20.9702 101.336 20.8919 101.388 20.8397L101.643 20.5851C101.907 20.3207 102.256 20.1771 102.629 20.1771H104.055C104.13 20.1771 104.195 20.2228 104.225 20.2913" fill="#290C51"/>
</svg>
