<svg width="16" height="16" viewBox="0 0 16 16" fill="none" xmlns="http://www.w3.org/2000/svg">
<path d="M7.74023 0.25C6.20743 0.25 4.70905 0.70453 3.43456 1.55611C2.16008 2.40769 1.16675 3.61808 0.580174 5.0342C-0.00640595 6.4503 -0.159886 8.0086 0.139154 9.512C0.438184 11.0153 1.1763 12.3962 2.26016 13.4801C3.34401 14.5639 4.72493 15.3021 6.22833 15.6011C7.73163 15.9001 9.28993 15.7466 10.706 15.1601C12.1221 14.5735 13.3325 13.5801 14.1841 12.3057C15.0357 11.0312 15.4902 9.5328 15.4902 8C15.488 5.94524 14.6708 3.97526 13.2179 2.52232C11.7649 1.06938 9.79503 0.25217 7.74023 0.25ZM5.77516 10.9808H9.70533C9.30513 12.3475 8.63443 13.5793 7.74023 14.5495C6.84603 13.5793 6.17533 12.3475 5.77516 10.9808ZM5.50466 9.7885C5.30693 8.6044 5.30693 7.3956 5.50466 6.21154H9.97583C10.1735 7.3956 10.1735 8.6044 9.97583 9.7885H5.50466ZM1.18254 8C1.18202 7.3952 1.26554 6.7933 1.43069 6.21154H4.2967C4.11885 7.3972 4.11885 8.6028 4.2967 9.7885H1.43069C1.26554 9.2067 1.18202 8.6048 1.18254 8ZM9.70533 5.01923H5.77516C6.17533 3.65255 6.84603 2.42075 7.74023 1.4505C8.63443 2.42075 9.30513 3.65255 9.70533 5.01923ZM11.1837 6.21154H14.0497C14.3806 7.3809 14.3806 8.6191 14.0497 9.7885H11.1837C11.3616 8.6028 11.3616 7.3972 11.1837 6.21154ZM13.5803 5.01923H10.9401C10.6358 3.82209 10.1249 2.68726 9.43033 1.66587C10.3177 1.90434 11.1454 2.3259 11.8601 2.90343C12.5748 3.48096 13.1608 4.20167 13.5803 5.01923ZM6.05013 1.66587C5.35554 2.68726 4.84461 3.82209 4.54038 5.01923H1.90016C2.31965 4.20167 2.9056 3.48096 3.62032 2.90343C4.33505 2.3259 5.16273 1.90434 6.05013 1.66587ZM1.90016 10.9808H4.54038C4.84461 12.1779 5.35554 13.3127 6.05013 14.3341C5.16273 14.0957 4.33505 13.6741 3.62032 13.0966C2.9056 12.519 2.31965 11.7983 1.90016 10.9808ZM9.43033 14.3341C10.1249 13.3127 10.6358 12.1779 10.9401 10.9808H13.5803C13.1608 11.7983 12.5748 12.519 11.8601 13.0966C11.1454 13.6741 10.3177 14.0957 9.43033 14.3341Z" fill="#323E48"/>
</svg>
